{"title":"Code Geass: Akito the Exiled 1 [EngDub] Download","magnet":"magnet:?xt=urn:btih:21488d8c23f84c237ffa13ab09d62fe6ae8a12d5&dn=Code+Geass%3A+Akito+the+Exiled+1+%5BEngDub%5D+Download&tr=udp%3A%2F%2Ftracker.leechers-paradise.org%3A6969&tr=udp%3A%2F%2Fzer0day.ch%3A1337&tr=udp%3A%2F%2Fopen.demonii.com%3A1337&tr=udp%3A%2F%2Ftracker.coppersurfer.tk%3A6969&tr=udp%3A%2F%2Fexodus.desync.com%3A6969","uploader":"digimaza","categoryP":"video","categoryS":"movies","size":"576370259","seeders":"8","leechers":"7","description":"Code Geass: Akito the Exiled 1: The Wyvern Arrives [EngDub] x264 Download \r\n..::File Specs::.. \r\nGeneral \r\n\r\nFormat : Matroska \r\nFormat version : Version 4 / Version 2 \r\nFile size : 550 MiB \r\nDuration : 50 min 53 s \r\nOverall bit rate : 1 510 kb/s \r\n\r\nVideo \r\nID : 1 \r\nFormat : AVC \r\nFormat/Info : Advanced Video Codec \r\nFormat profile : <a class=\"__cf_email__\" href=\"/cdn-cgi/l/email-protection\" data-cfemail=\"c981a0aea18985fae7f8\">[email&#xA0;protected]</a><script data-cfhash=\"f9e31\" type=\"text/javascript\">/* <![CDATA[ */!function(t,e,r,n,c,a,p){try{t=document.currentScript||function(){for(t=document.getElementsByTagName('script'),e=t.length;e--;)if(t[e].getAttribute('data-cfhash'))return t[e]}();if(t&&(c=t.previousSibling)){p=t.parentNode;if(a=c.getAttribute('data-cfemail')){for(e='',r='0x'+a.substr(0,2)|0,n=2;a.length-n;n+=2)e+='%'+('0'+('0x'+a.substr(n,2)^r).toString(16)).slice(-2);p.replaceChild(document.createTextNode(decodeURIComponent(e)),c)}p.removeChild(t)}}catch(u){}}()/* ]]> */</script> \r\nFormat settings, CABAC : Yes \r\nFormat settings, ReFrames : 1 frame \r\nCodec ID : V_MPEG4/ISO/AVC \r\nDuration : 50 min 53 s \r\nBit rate : 1 316 kb/s \r\nWidth : 1 280 pixels \r\nHeight : 720 pixels \r\nDisplay aspect ratio : 16:9 \r\nFrame rate mode : Constant \r\nFrame rate : 23.976 (24000/1001) FPS \r\nColor space : YUV \r\nChroma subsampling : 4:2:0 \r\nBit depth : 8 bits \r\nScan type : Progressive \r\nBits/(Pixel*Frame) : 0.060 \r\nStream size : 479 MiB (87%) \r\nDefault : Yes \r\nForced : No \r\nColor range : Limited \r\nColor primaries : BT.709 \r\nTransfer characteristics : BT.709 \r\nMatrix coefficients : BT.709 \r\n\r\nAudio \r\nID : 2 \r\nFormat : AAC \r\nFormat/Info : Advanced Audio Codec \r\nFormat profile : LC \r\nCodec ID : A_AAC \r\nDuration : 50 min 53 s \r\nBit rate : 192 kb/s \r\nChannel(s) : 2 channels \r\nChannel positions : Front: L R \r\nSampling rate : 44.1 kHz \r\nFrame rate : 43.066 FPS (1024 spf) \r\nCompression mode : Lossy \r\nStream size : 69.9 MiB (13%) \r\n\r\n..::ScreenShots::.. \r\n <a href=\"\nhttps://s12.postimg.org/ymnr2rkwd/vlcsnap-2017-07-05-00h58m23s116.png\" rel=\"nofollow\" target=\"_NEW\">\nhttps://s12.postimg.org/ymnr2rkwd/vlcsnap-2017-07-05-00h58m23s116.png</a>  <a href=\"\nhttps://s12.postimg.org/70kzi31jh/vlcsnap-2017-07-05-00h58m29s682.png\" rel=\"nofollow\" target=\"_NEW\">\nhttps://s12.postimg.org/70kzi31jh/vlcsnap-2017-07-05-00h58m29s682.png</a>  <a href=\"\nhttps://s12.postimg.org/eull3h9cd/vlcsnap-2017-07-05-00h58m34s330.png\" rel=\"nofollow\" target=\"_NEW\">\nhttps://s12.postimg.org/eull3h9cd/vlcsnap-2017-07-05-00h58m34s330.png</a> \r\n\r\n================================================================ \r\nSeed Seed Seed Seed Seed Seed Seed Seed Seed Seed Seed Seed Seed \r\nTo direct download or Watch Online this file, Visit. \r\r\nSeed Seed Seed Seed Seed Seed Seed Seed Seed Seed Seed Seed Seed \r\n================================================================","last_updated":"2017-07-05T12:01:46.771Z","parsed":{"xt":"urn:btih:21488d8c23f84c237ffa13ab09d62fe6ae8a12d5","dn":"Code Geass: Akito the Exiled 1 [EngDub] Download","tr":["udp://exodus.desync.com:6969","udp://open.demonii.com:1337","udp://tracker.coppersurfer.tk:6969","udp://tracker.leechers-paradise.org:6969","udp://zer0day.ch:1337"],"infoHash":"21488d8c23f84c237ffa13ab09d62fe6ae8a12d5","infoHashBuffer":{"type":"Buffer","data":[33,72,141,140,35,248,76,35,127,250,19,171,9,214,47,230,174,138,18,213]},"name":"Code Geass: Akito the Exiled 1 [EngDub] Download","announce":["udp://exodus.desync.com:6969","udp://open.demonii.com:1337","udp://tracker.coppersurfer.tk:6969","udp://tracker.leechers-paradise.org:6969","udp://zer0day.ch:1337"],"urlList":[]}}